<svg height="512pt" viewBox="0 0 512 512" width="512pt" xmlns="http://www.w3.org/2000/svg"><path d="m123 492c0 11.046875-8.953125 20-20 20h-3c-44.113281 0-80-35.886719-80-80v-222c0-11.046875 8.953125-20 20-20s20 8.953125 20 20v222c0 22.054688 17.945312 40 40 40h3c11.046875 0 20 8.953125 20 20zm389-432v60c0 11.046875-8.953125 20-20 20v59c0 11.046875-8.953125 20-20 20s-20-8.953125-20-20v-59h-432c-11.046875 0-20-8.953125-20-20v-60c0-33.085938 26.914062-60 60-60h392c33.085938 0 60 26.914062 60 60zm-472 40h432v-40c0-11.027344-8.972656-20-20-20h-392c-11.027344 0-20 8.972656-20 20zm260 120c11.046875 0 20-8.953125 20-20s-8.953125-20-20-20h-90c-11.046875 0-20 8.953125-20 20s8.953125 20 20 20zm212 116.988281v95.011719c0 44.113281-35.886719 80-80 80h-200.011719c-44.109375 0-79.988281-35.886719-79.988281-80v-95.011719c0-44.109375 35.878906-79.988281 79.988281-79.988281h200.011719c44.113281 0 80 35.878906 80 79.988281zm-40 0c0-22.054687-17.945312-40-40-40h-200.011719c-22.054687 0-40 17.945313-40 40v95.011719c0 22.054688 17.945313 40 40 40h200.011719c22.054688 0 40-17.945312 40-40zm-140 6.011719c-22.089844 0-40 18.804688-40 42s17.910156 42 40 42 40-18.804688 40-42-17.910156-42-40-42zm90 22.480469c-11.046875 0-20 8.953125-20 20s8.953125 20 20 20 20-8.953125 20-20-8.953125-20-20-20zm-180 0c-11.046875 0-20 8.953125-20 20s8.953125 20 20 20 20-8.953125 20-20-8.953125-20-20-20zm0 0"/></svg>