<svg id="Bold" enable-background="new 0 0 24 24" height="512" viewBox="0 0 24 24" width="512" xmlns="http://www.w3.org/2000/svg"><path d="m24 4.826c0-.158-.037-.313-.109-.454l-1.682-3.301c-.337-.66-1.016-1.071-1.771-1.071h-16.876c-.755 0-1.434.411-1.771 1.072l-1.682 3.3c-.072.141-.109.296-.109.454v4.544c0 .029.008.057.009.086-.001.015-.009.028-.009.044v11.5c0 1.654 1.346 3 3 3h18c1.654 0 3-1.346 3-3v-11.5c0-.016-.008-.029-.009-.044.001-.029.009-.057.009-.086zm-3 17.174h-4.5v-4.25c0-1.517-1.233-2.75-2.75-2.75h-3.5c-1.517 0-2.75 1.233-2.75 2.75v4.25h-4.5c-.552 0-1-.449-1-1v-8.421c.516.265 1.086.421 1.688.421 1.095 0 2.08-.472 2.757-1.22.028.029.058.059.087.087.734.731 1.721 1.133 2.78 1.133 1.147 0 2.182-.486 2.901-1.26.027.031.056.062.084.092.677.742 1.638 1.168 2.637 1.168 1.042 0 1.984-.456 2.655-1.187.039.041.078.081.119.12.689.688 1.614 1.067 2.604 1.067.612 0 1.18-.161 1.688-.422v8.422c0 .551-.448 1-1 1z"/></svg>